<svg xmlns="http://www.w3.org/2000/svg" xmlns:xlink="http://www.w3.org/1999/xlink" width="30px" height="30px" viewBox="0 0 30 30" version="1.1">
    <!-- Generator: Sketch 55.2 (78181) - https://sketchapp.com -->
    <title>Fill 1</title>
    <desc>Created with Sketch.</desc>
    <g id="Symbols" stroke="none" stroke-width="1" fill="none" fill-rule="evenodd">
        <g id="Mobile_Footer" transform="translate(-208.000000, -30.000000)" fill="#FFFFFF">
            <g id="Group-35">
                <g transform="translate(50.000000, 30.000000)">
                    <path d="M176.573113,9.90566038 C176.573113,9.90566038 175.438915,9.90566038 174.901533,9.90566038 C174.235377,9.90566038 174.096698,10.1793042 174.096698,10.8689858 C174.096698,11.4435142 174.096698,12.3820755 174.096698,12.3820755 L176.573113,12.3820755 L176.314328,14.8584906 L174.096698,14.8584906 L174.096698,23.5259434 L170.382075,23.5259434 L170.382075,14.8584906 L167.90566,14.8584906 L167.90566,12.3820755 L170.382075,12.3820755 C170.382075,12.3820755 170.382075,11.4323703 170.382075,9.52429245 C170.382075,7.3339033 171.534847,6.19103774 174.132606,6.19103774 C174.557311,6.19103774 176.573113,6.19103774 176.573113,6.19103774 L176.573113,9.90566038 Z M172.858491,0 C164.652889,0 158,6.65288915 158,14.8584906 C158,23.064092 164.652889,29.7169811 172.858491,29.7169811 C181.064092,29.7169811 187.716981,23.064092 187.716981,14.8584906 C187.716981,6.65288915 181.064092,0 172.858491,0 L172.858491,0 Z" id="Fill-1"/>
                </g>
            </g>
        </g>
    </g>
</svg>