<svg xmlns="http://www.w3.org/2000/svg" xmlns:xlink="http://www.w3.org/1999/xlink" width="30px" height="30px" viewBox="0 0 30 30" version="1.1">
    <!-- Generator: Sketch 55.2 (78181) - https://sketchapp.com -->
    <title>Fill 1</title>
    <desc>Created with Sketch.</desc>
    <g id="Symbols" stroke="none" stroke-width="1" fill="none" fill-rule="evenodd">
        <g id="Mobile_Footer" transform="translate(-133.000000, -30.000000)" fill="#FFFFFF">
            <g id="Group-35">
                <g transform="translate(50.000000, 30.000000)">
                    <path d="M105.790448,5.14475236 C104.804835,5.14475236 104.007429,5.94215802 104.007429,6.92777123 C104.007429,7.91214623 104.804835,8.71079009 105.790448,8.71079009 C106.774823,8.71079009 107.573467,7.91214623 107.573467,6.92777123 C107.573467,5.94215802 106.774823,5.14475236 105.790448,5.14475236 Z M97.8584906,19.8113208 C95.1232901,19.8113208 92.9056604,17.5949292 92.9056604,14.8584906 C92.9056604,12.1232901 95.1232901,9.90566038 97.8584906,9.90566038 C100.593691,9.90566038 102.811321,12.1232901 102.811321,14.8584906 C102.811321,17.5949292 100.593691,19.8113208 97.8584906,19.8113208 Z M97.8584906,7.22865566 C93.6448703,7.22865566 90.2286557,10.6448703 90.2286557,14.8584906 C90.2286557,19.0721108 93.6448703,22.4883255 97.8584906,22.4883255 C102.072111,22.4883255 105.488325,19.0721108 105.488325,14.8584906 C105.488325,10.6448703 102.072111,7.22865566 97.8584906,7.22865566 Z M97.8584906,0 C93.8231722,0 93.3179835,0.0173349057 91.7330778,0.0891509434 C86.3357311,0.336792453 83.3367925,3.3307783 83.0891509,8.73307783 C83.0173349,10.3179835 83,10.8231722 83,14.8584906 C83,18.8950472 83.0173349,19.4002358 83.0891509,20.9851415 C83.3367925,26.3824882 86.3307783,29.3801887 91.7330778,29.6278302 C93.3179835,29.6996462 93.8231722,29.7169811 97.8584906,29.7169811 C101.893809,29.7169811 102.400236,29.6996462 103.985142,29.6278302 C109.376297,29.3814269 112.382665,26.3862028 112.62783,20.9851415 C112.699646,19.4002358 112.716981,18.8950472 112.716981,14.8584906 C112.716981,10.8231722 112.699646,10.3179835 112.62783,8.73307783 C112.383903,3.34192217 109.386203,0.336792453 103.985142,0.0891509434 C102.400236,0.0173349057 101.893809,0 97.8584906,0 Z M97.8584906,2.67824292 C101.825708,2.67824292 102.296226,2.69310142 103.863797,2.76367925 C107.890448,2.94693396 109.770047,4.85748821 109.95454,8.85442217 C110.025118,10.4207547 110.039976,10.8912736 110.039976,14.8584906 C110.039976,18.8269458 110.025118,19.2962264 109.95454,20.862559 C109.770047,24.8557783 107.892925,26.7700472 103.863797,26.9545401 C102.296226,27.0251179 101.826946,27.0399764 97.8584906,27.0399764 C93.8912736,27.0399764 93.4207547,27.0251179 91.8544222,26.9545401 C87.8178656,26.768809 85.946934,24.8508255 85.7636792,20.862559 C85.6931014,19.2962264 85.6770047,18.8269458 85.6770047,14.8584906 C85.6770047,10.8912736 85.6931014,10.4207547 85.7636792,8.85442217 C85.9481722,4.85872642 87.8240566,2.94693396 91.8544222,2.76367925 C93.4219929,2.69310142 93.8912736,2.67824292 97.8584906,2.67824292 L97.8584906,2.67824292 Z" id="Fill-1"/>
                </g>
            </g>
        </g>
    </g>
</svg>